# xmcd
#
# Track frame offsets: 
#        150
#        12464
#        25598
#        39582
#        59920
#        70446
#        82407
#        106789
#        117796
#        129594
#        140731
#        154877
#        174059
#        185617
#        200476
#        217788
#        234573
#        248060
#
# Disc length: 3547 seconds
#
# Revision: 1
# Processed by: cddbd v1.5.2PL0 Copyright (c) Steve Scherf et al.
# Submitted via: ExactAudioCopyFreeDBPlugin 1.0
#
DISCID=020dd912
DTITLE=Various Artist - Great Blues Duets And Legends
DYEAR=2001
DGENRE=Blues
TTITLE0=Sonny Boy Williamson and B.B. King - From The Bottom
TTITLE1=Charles Brown and Johnny Otis - Rockin' Blues
TTITLE2=John Mayall and John Lee Hooker - Bad Dream Catcher
TTITLE3=Buddy Guy and Junior Wells - Every Day I Have The Blues
TTITLE4=Willie Love and Elmore James - Everybody's Fishing
TTITLE5=Big Joe Williams - Delta Blues
TTITLE6=Lightnin' Hopkins - Walk A Long Time
TTITLE7=B.B. King - Catfish Blues
TTITLE8=Leadbelly - The Boll Weevil Song
TTITLE9=Amos Milburn - Bad, Bad Whiskey
TTITLE10=Ray Charles - Some Day (Blues Is My Middle Name)
TTITLE11=Screamin' Jay Hawkins - Portait Of A Man
TTITLE12=The 5 Royals - She Did Me Wrong
TTITLE13=Dr. John - Zu Zu Man
TTITLE14=Canned Heat - Sweet Sixteen
TTITLE15=Johnny Otis and Pee Wee Crayton - Barrel House Blues
TTITLE16=Louis Jordan - I Got The Walkin' Blues
TTITLE17=Big Joe Turner and Pete Johnson - Roll 'em Pete
EXTD=
EXTT0=
EXTT1=
EXTT2=
EXTT3=
EXTT4=
EXTT5=
EXTT6=
EXTT7=
EXTT8=
EXTT9=
EXTT10=
EXTT11=
EXTT12=
EXTT13=
EXTT14=
EXTT15=
EXTT16=
EXTT17=
PLAYORDER=
